<?xml version="1.0" encoding="UTF-8"?>
<svg width="114px" height="40px" viewBox="0 0 114 40" version="1.1" xmlns="http://www.w3.org/2000/svg" xmlns:xlink="http://www.w3.org/1999/xlink">
    <!-- Generator: Sketch 48.2 (47327) - http://www.bohemiancoding.com/sketch -->
    <title>logo-snmg</title>
    <desc>Created with Sketch.</desc>
    <defs>
        <polygon id="path-1" points="0 0 0 40 113.469388 40 113.469388 0"></polygon>
    </defs>
    <g id="01" stroke="none" stroke-width="1" fill="none" fill-rule="evenodd" transform="translate(-62.000000, -31.000000)">
        <g id="HEADER" transform="translate(62.000000, 27.000000)">
            <g id="logo-snmg" transform="translate(0.000000, 4.000000)">
                <mask id="mask-2" fill="white">
                    <use xlink:href="#path-1"></use>
                </mask>
                <g id="Clip-2"></g>
                <path d="M6.62080369,9.28642342 C11.8991109,9.28642342 12.8565564,11.6473785 13.0229069,12.3642161 L23.2061627,12.3642161 C23.2061627,5.41381934 16.0764753,0.173339614 6.62080369,0.173339614 C4.24087522,0.173339614 2.0089615,0.506105294 0,1.11337367 L0,23.6121599 C2.00789856,24.220008 4.2392808,24.5545128 6.6178806,24.5545128 L6.6178806,24.5606 C11.8228447,24.5606 12.3115326,26.8545962 12.5541493,27.6401319 C12.3115326,28.4242183 11.8228447,30.7173448 6.6178806,30.7173448 C1.34143355,30.7173448 0.384519484,28.3566796 0.215777347,27.6401319 L0,27.6401319 L0,38.8906844 C2.00789856,39.4982427 4.2392808,39.8310084 6.6178806,39.8310084 C16.0735522,39.8310084 23.2032396,34.5899489 23.2032396,27.6401319 C23.2032396,20.6908946 16.0754123,15.4498351 6.62080369,15.4480959 L6.62080369,15.4420088 C1.41743395,15.4420088 0.929809035,13.1474329 0.686926652,12.3642161 C0.929809035,11.57955 1.41743395,9.28642342 6.62080369,9.28642342 Z M95.1886353,9.11685206 L95.1886353,0.00318852132 C91.6838478,0.00318852132 88.4190196,1.10699663 85.6346415,2.98387623 L85.6346415,16.9872821 C86.8328435,12.4482771 90.6591711,9.11685206 95.1886353,9.11685206 Z M95.1886353,15.4451973 L95.1886353,24.5588608 L104.225242,24.5588608 C102.645975,28.2905902 99.1895512,30.8866263 95.1886353,30.8866263 C90.6591711,30.8866263 86.8328435,27.5554911 85.6346415,23.016776 L85.6346415,37.0187326 C88.4190196,38.8967716 91.6838478,40 95.1886353,40 C105.269051,40 113.469388,31.0283706 113.469388,20.0018841 L113.469388,15.4451973 L95.1886353,15.4451973 Z M64.2790618,14.2390666 L55.5934921,6.9280771 L55.5934921,18.6682126 L64.2022642,25.9983333 L64.2022642,26.1287728 L64.2790618,26.063553 L64.3547965,26.1287728 L64.3547965,25.9983333 L72.996254,18.6400957 L72.996254,39.6625965 L81.4827877,39.6625965 L81.4827877,0.0046378492 L81.4726898,0 L64.2790618,14.2390666 Z M42.8801672,0.0046378492 L42.8801672,20.5392949 L26.7688806,6.97648466 L26.7688806,18.7160404 L51.3651065,39.6625965 L51.3651065,39.6298417 L51.3815821,39.6440451 L51.3651065,0.0046378492 L42.8801672,0.0046378492 Z" id="Fill-1" fill="#1D1D1B" mask="url(#mask-2)"></path>
            </g>
        </g>
    </g>
</svg>